# xmcd CD database file
#
# Track frame offsets:
#	182
#	20217
#	41310
#	59765
#	78880
#	100692
#	127750
#	152747
#	175785
#
# Disc length: 2658 seconds
#
# Revision: 0
# Processed by: cddbd v1.5PL3 Copyright (c) Steve Scherf et al.
# Submitted via: NeoAudio 9.9.9
#
DISCID=660a6009
DTITLE=Michael Allen Harrison - Moments in Passion
DYEAR=1992
DGENRE=New Age
TTITLE0=3rd Avenue
TTITLE1=When Morning Comes
TTITLE2=Green Mansions
TTITLE3=Just One More Chance
TTITLE4=City Breeze
TTITLE5=Conversations
TTITLE6=Moments in Passion
TTITLE7=At Midnight
TTITLE8=Private Places
EXTD=YEAR: 1992
EXTT0=
EXTT1=
EXTT2=
EXTT3=
EXTT4=
EXTT5=
EXTT6=
EXTT7=
EXTT8=
PLAYORDER=
